Coordinates
version=1
nRows=8
nColumns=40
inDegrees=yes

Units are S.I. units (second, meters, Newtons, ...)
Angles are in degrees.

endheader
time	pelvis_tilt	pelvis_list	pelvis_rotation	pelvis_tx	pelvis_ty	pelvis_tz	hip_flexion_r	hip_adduction_r	hip_rotation_r	knee_angle_r	knee_angle_r_beta	ankle_angle_r	subtalar_angle_r	mtp_angle_r	hip_flexion_l	hip_adduction_l	hip_rotation_l	knee_angle_l	knee_angle_l_beta	ankle_angle_l	subtalar_angle_l	mtp_angle_l	lumbar_extension	lumbar_bending	lumbar_rotation	arm_flex_r	arm_add_r	arm_rot_r	elbow_flex_r	pro_sup_r	wrist_flex_r	wrist_dev_r	arm_flex_l	arm_add_l	arm_rot_l	elbow_flex_l	pro_sup_l	wrist_flex_l	wrist_dev_l
     10.09250000	     -3.47090484	     -4.47152355	     -7.00274609	      1.01777367	      0.92940481	      0.52030092	     14.54042679	      2.01252776	     -6.05599831	     21.73995521	     21.73995521	     12.06138682	     -0.80032055	      0.07881441	     -1.44644100	    -10.79401002	    -12.90247289	     16.18597183	     16.18597183	     17.41444638	     -8.49465882	      3.42531717	     -9.05322583	      7.86081286	      0.18937257	    -13.36881118	    -13.53308143	     -5.21443689	     31.89954258	     45.54497846	      0.00000000	      0.00000000	     34.90846828	    -20.87652952	    -11.33532238	     73.92966705	     48.00865507	      0.00000000	      0.00000000
     10.11428571	     -3.57598853	     -4.67720601	     -6.51414226	      1.01761723	      0.92947248	      0.52511158	     14.07486503	      2.53275509	     -6.44036767	     21.34379076	     21.34379076	     12.31053513	     -0.94351508	      0.19158967	     -1.12967666	    -11.49404523	    -12.46893941	     16.93813022	     16.93813022	     17.30287367	     -8.61511782	      3.71312967	     -9.06121575	      7.82106307	      0.23580304	    -12.64837002	    -13.79970562	     -5.26652520	     31.80765676	     45.56463448	      0.00000000	      0.00000000	     33.49649991	    -20.43036687	    -11.23033204	     73.55064523	     47.98335918	      0.00000000	      0.00000000
     10.13607143	     -3.53867911	     -4.70246729	     -6.16044288	      1.01745892	      0.92967263	      0.52978125	     13.62360348	      2.83127664	     -6.71379293	     21.20967651	     21.20967651	     12.59786494	     -1.05328051	      0.15870348	     -1.05646575	    -11.92374655	    -12.13951931	     17.50444260	     17.50444260	     17.04360638	     -8.75803352	      3.80665813	     -9.21989191	      7.51653028	      0.56987110	    -11.99306958	    -13.99392747	     -5.29503433	     31.94606507	     45.56783807	      0.00000000	      0.00000000	     32.01306233	    -19.71700397	    -10.97644847	     73.07454679	     47.94671601	      0.00000000	      0.00000000
     10.15785714	     -3.69634741	     -5.12264846	     -5.72654076	      1.01706666	      0.92965176	      0.53429342	     13.07908604	      3.59392909	     -7.16896433	     20.52542454	     20.52542454	     12.67124226	     -1.01603899	      0.29653890	     -0.28340393	    -12.86230973	    -11.30183546	     18.96540396	     18.96540396	     16.88260804	     -9.69211142	      3.97767907	     -9.12582403	      7.74721030	      0.54668125	    -11.07500252	    -14.32239865	     -5.37096915	     31.96682256	     45.58462642	      0.00000000	      0.00000000	     30.18074438	    -19.41878719	    -10.82826806	     72.31102295	     47.90928138	      0.00000000	      0.00000000
     10.17964286	     -3.74042572	     -5.31543061	     -5.37518703	      1.01664209	      0.92968601	      0.53869228	     12.60662847	      4.10035992	     -7.46016068	     20.15172226	     20.15172226	     12.83450072	     -1.11341811	      0.32980401	      0.38075194	    -13.48382884	    -10.43304782	     20.38634386	     20.38634386	     16.62141683	    -10.71724510	      4.22306205	     -9.12063043	      7.65694850	      0.49120716	     -9.86882460	    -14.48534657	     -5.40102883	     31.97385353	     45.60228637	      0.00000000	      0.00000000	     28.13914787	    -19.01771150	    -10.66182607	     71.40290263	     47.86596834	      0.00000000	      0.00000000
     10.20142857	     -3.72685092	     -5.50777130	     -5.06998437	      1.01617068	      0.92976078	      0.54293333	     12.10235744	      4.59609225	     -7.70641620	     19.81996147	     19.81996147	     12.98552093	     -1.18845113	      0.34533224	      1.13347404	    -14.08482265	     -9.49559841	     22.06558782	     22.06558782	     16.24304788	    -11.93556628	      4.33259880	     -9.16760741	      7.57367995	      0.50694180	     -8.55005569	    -14.62503110	     -5.40935598	     32.00500704	     45.61817563	      0.00000000	      0.00000000	     25.98697207	    -18.54182421	    -10.46718294	     70.30576513	     47.81665572	      0.00000000	      0.00000000
     10.22321429	     -3.66352594	     -5.69942153	     -4.78927877	      1.01564150	      0.92979227	      0.54708949	     11.58592719	      5.08400689	     -7.91934099	     19.54992702	     19.54992702	     13.16434897	     -1.28888194	      0.34459170	      2.04353451	    -14.68322919	     -8.48660144	     24.09808565	     24.09808565	     15.72422872	    -13.32799249	      4.26362593	     -9.23963297	      7.46548916	      0.52092437	     -7.07799215	    -14.71448220	     -5.40220534	     32.11322977	     45.63049773	      0.00000000	      0.00000000	     23.73987319	    -17.99733681	    -10.22892922	     68.94366386	     47.75930147	      0.00000000	      0.00000000
     10.24500000	     -3.61494268	     -5.80041969	     -4.53470216	      1.01497846	      0.92971885	      0.55106770	     11.19715077	      5.46957460	     -8.03329355	     19.44906235	     19.44906235	     13.33267022	     -1.52162589	      0.29328465	      3.15133068	    -15.13019915	     -7.33700503	     26.37374699	     26.37374699	     14.82443781	    -15.14311411	      3.81991277	     -9.19979100	      7.25941594	      0.13993511	     -4.58595878	    -14.67895130	     -4.96654746	     30.69130188	     45.71602534	      0.00000000	      0.00000000	     21.27331823	    -17.53077233	    -10.47766532	     66.88333465	     47.71287406	      0.00000000	      0.00000000
